<svg width="889" height="491" viewBox="0 0 889 491" fill="none" xmlns="http://www.w3.org/2000/svg">
<rect opacity="0.4" x="481" y="204.16" width="104" height="104" transform="rotate(-14 481 204.16)" fill="url(#paint0_linear_321_1075)"/>
<rect opacity="0.4" x="121" y="304.16" width="84.4399" height="84.4399" transform="rotate(-14 121 304.16)" fill="url(#paint1_linear_321_1075)"/>
<rect opacity="0.4" x="26" y="353.428" width="35.9463" height="35.9463" transform="rotate(-14 26 353.428)" fill="url(#paint2_linear_321_1075)"/>
<rect y="408.204" width="29.7768" height="29.7768" transform="rotate(-14 0 408.204)" fill="url(#paint3_linear_321_1075)"/>
<rect opacity="0.4" x="397" y="259.16" width="36.4455" height="36.4455" transform="rotate(-14 397 259.16)" fill="url(#paint4_linear_321_1075)"/>
<rect opacity="0.4" x="276" y="291.817" width="32.8996" height="32.8996" transform="rotate(-14 276 291.817)" fill="url(#paint5_linear_321_1075)"/>
<rect x="327" y="324.817" width="30.2334" height="30.2334" transform="rotate(-14 327 324.817)" fill="#6EE13E"/>
<rect x="170.303" y="371.563" width="16.5789" height="16.5789" transform="rotate(-14 170.303 371.563)" fill="#6EE13E"/>
<rect x="92" y="394.011" width="13.0794" height="13.0794" transform="rotate(-14 92 394.011)" fill="#6EE13E"/>
<rect x="331" y="398.314" width="56.8631" height="56.8631" transform="rotate(-14 331 398.314)" fill="#6EE13E"/>
<rect opacity="0.4" x="611" y="175.16" width="93.1647" height="93.1647" transform="rotate(-14 611 175.16)" fill="url(#paint6_linear_321_1075)"/>
<rect opacity="0.4" x="636" y="297.206" width="105.183" height="104.189" transform="rotate(-14 636 297.206)" fill="url(#paint7_linear_321_1075)"/>
<rect opacity="0.4" x="515" y="330.446" width="100.095" height="99.1493" transform="rotate(-14 515 330.446)" fill="url(#paint8_linear_321_1075)"/>
<rect opacity="0.4" x="391" y="362.215" width="99.3111" height="98.3726" transform="rotate(-14 391 362.215)" fill="url(#paint9_linear_321_1075)"/>
<rect opacity="0.4" x="280" y="401.026" width="77.1799" height="76.4505" transform="rotate(-14 280 401.026)" fill="url(#paint10_linear_321_1075)"/>
<rect opacity="0.4" x="769" y="271.52" width="88.9519" height="88.9519" transform="rotate(-14 769 271.52)" fill="url(#paint11_linear_321_1075)"/>
<rect opacity="0.4" x="707" y="22.5386" width="93.1647" height="93.1647" transform="rotate(-14 707 22.5386)" fill="url(#paint12_linear_321_1075)"/>
<rect opacity="0.4" x="733" y="143.539" width="98.419" height="98.419" transform="rotate(-14 733 143.539)" fill="url(#paint13_linear_321_1075)"/>
<rect x="547" y="249.757" width="71.0487" height="71.0487" transform="rotate(-14 547 249.757)" fill="#6EE13E"/>
<rect x="706.827" y="206.493" width="76.4786" height="76.4786" transform="rotate(-14 706.827 206.493)" fill="#6EE13E"/>
<rect x="774.275" y="108.932" width="65.5224" height="65.5224" transform="rotate(-14 774.275 108.932)" fill="#6EE13E"/>
<rect x="704" y="135.188" width="47.3253" height="47.3253" transform="rotate(-14 704 135.188)" fill="#6EE13E"/>
<rect x="624" y="226.188" width="77.7057" height="77.7057" transform="rotate(-14 624 226.188)" fill="url(#paint14_linear_321_1075)"/>
<rect x="498" y="289.799" width="15.9515" height="15.9515" transform="rotate(-14 498 289.799)" fill="url(#paint15_linear_321_1075)"/>
<rect x="408" y="304.859" width="31.1628" height="31.1628" transform="rotate(-14 408 304.859)" fill="url(#paint16_linear_321_1075)"/>
<rect x="255" y="353.539" width="13.4778" height="13.4778" transform="rotate(-14 255 353.539)" fill="url(#paint17_linear_321_1075)"/>
<rect x="789" y="185.799" width="77.7057" height="77.7057" transform="rotate(-14 789 185.799)" fill="url(#paint18_linear_321_1075)"/>
<rect x="570" y="334.047" width="66.1466" height="66.1466" transform="rotate(-14 570 334.047)" fill="#6EE13E"/>
<rect x="742" y="297.51" width="51.7109" height="51.7109" transform="rotate(-14 742 297.51)" fill="url(#paint19_linear_321_1075)"/>
<rect x="761" y="377.181" width="54.486" height="54.486" transform="rotate(-14 761 377.181)" fill="url(#paint20_linear_321_1075)"/>
<rect x="660" y="317.02" width="52.5407" height="52.5407" transform="rotate(-14 660 317.02)" fill="url(#paint21_linear_321_1075)"/>
<rect x="488" y="354.711" width="66.2087" height="66.2087" transform="rotate(-14 488 354.711)" fill="url(#paint22_linear_321_1075)"/>
<rect x="404.607" y="372.663" width="69.4223" height="69.4223" transform="rotate(-14 404.607 372.663)" fill="url(#paint23_linear_321_1075)"/>
<rect x="238" y="422.795" width="69.4223" height="69.4223" transform="rotate(-14 238 422.795)" fill="url(#paint24_linear_321_1075)"/>
<rect x="825" y="276.711" width="52.5407" height="52.5407" transform="rotate(-14 825 276.711)" fill="url(#paint25_linear_321_1075)"/>
<defs>
<linearGradient id="paint0_linear_321_1075" x1="501" y1="232.16" x2="557.04" y2="305.054" gradientUnits="userSpaceOnUse">
<stop stop-color="#00AB39"/>
<stop offset="1" stop-color="#008B00"/>
</linearGradient>
<linearGradient id="paint1_linear_321_1075" x1="137.238" y1="326.894" x2="182.739" y2="386.078" gradientUnits="userSpaceOnUse">
<stop stop-color="#00AB39"/>
<stop offset="1" stop-color="#008B00"/>
</linearGradient>
<linearGradient id="paint2_linear_321_1075" x1="32.9127" y1="363.106" x2="52.2824" y2="388.3" gradientUnits="userSpaceOnUse">
<stop stop-color="#00AB39"/>
<stop offset="1" stop-color="#008B00"/>
</linearGradient>
<linearGradient id="paint3_linear_321_1075" x1="5.72631" y1="416.22" x2="21.7716" y2="437.091" gradientUnits="userSpaceOnUse">
<stop stop-color="#00AB39"/>
<stop offset="1" stop-color="#008B00"/>
</linearGradient>
<linearGradient id="paint4_linear_321_1075" x1="404.009" y1="268.972" x2="423.647" y2="294.517" gradientUnits="userSpaceOnUse">
<stop stop-color="#00AB39"/>
<stop offset="1" stop-color="#008B00"/>
</linearGradient>
<linearGradient id="paint5_linear_321_1075" x1="282.327" y1="300.674" x2="300.055" y2="323.734" gradientUnits="userSpaceOnUse">
<stop stop-color="#00AB39"/>
<stop offset="1" stop-color="#008B00"/>
</linearGradient>
<linearGradient id="paint6_linear_321_1075" x1="628.916" y1="200.243" x2="679.118" y2="265.542" gradientUnits="userSpaceOnUse">
<stop stop-color="#00AB39"/>
<stop offset="1" stop-color="#008B00"/>
</linearGradient>
<linearGradient id="paint7_linear_321_1075" x1="656.227" y1="325.256" x2="712.23" y2="398.796" gradientUnits="userSpaceOnUse">
<stop stop-color="#00AB39"/>
<stop offset="1" stop-color="#008B00"/>
</linearGradient>
<linearGradient id="paint8_linear_321_1075" x1="534.249" y1="357.14" x2="587.543" y2="427.123" gradientUnits="userSpaceOnUse">
<stop stop-color="#00AB39"/>
<stop offset="1" stop-color="#008B00"/>
</linearGradient>
<linearGradient id="paint9_linear_321_1075" x1="410.098" y1="388.7" x2="462.975" y2="458.135" gradientUnits="userSpaceOnUse">
<stop stop-color="#00AB39"/>
<stop offset="1" stop-color="#008B00"/>
</linearGradient>
<linearGradient id="paint10_linear_321_1075" x1="294.842" y1="421.608" x2="335.936" y2="475.57" gradientUnits="userSpaceOnUse">
<stop stop-color="#00AB39"/>
<stop offset="1" stop-color="#008B00"/>
</linearGradient>
<linearGradient id="paint11_linear_321_1075" x1="786.106" y1="295.468" x2="834.038" y2="357.815" gradientUnits="userSpaceOnUse">
<stop stop-color="#00AB39"/>
<stop offset="1" stop-color="#008B00"/>
</linearGradient>
<linearGradient id="paint12_linear_321_1075" x1="724.916" y1="47.6214" x2="775.118" y2="112.921" gradientUnits="userSpaceOnUse">
<stop stop-color="#00AB39"/>
<stop offset="1" stop-color="#008B00"/>
</linearGradient>
<linearGradient id="paint13_linear_321_1075" x1="751.927" y1="170.036" x2="804.96" y2="239.018" gradientUnits="userSpaceOnUse">
<stop stop-color="#00AB39"/>
<stop offset="1" stop-color="#008B00"/>
</linearGradient>
<linearGradient id="paint14_linear_321_1075" x1="638.943" y1="247.109" x2="680.815" y2="301.573" gradientUnits="userSpaceOnUse">
<stop stop-color="#00AB39"/>
<stop offset="1" stop-color="#008B00"/>
</linearGradient>
<linearGradient id="paint15_linear_321_1075" x1="501.068" y1="294.093" x2="509.663" y2="305.274" gradientUnits="userSpaceOnUse">
<stop stop-color="#00AB39"/>
<stop offset="1" stop-color="#008B00"/>
</linearGradient>
<linearGradient id="paint16_linear_321_1075" x1="413.993" y1="313.249" x2="430.785" y2="335.091" gradientUnits="userSpaceOnUse">
<stop stop-color="#00AB39"/>
<stop offset="1" stop-color="#008B00"/>
</linearGradient>
<linearGradient id="paint17_linear_321_1075" x1="257.592" y1="357.168" x2="264.854" y2="366.614" gradientUnits="userSpaceOnUse">
<stop stop-color="#00AB39"/>
<stop offset="1" stop-color="#008B00"/>
</linearGradient>
<linearGradient id="paint18_linear_321_1075" x1="803.943" y1="206.72" x2="845.815" y2="261.184" gradientUnits="userSpaceOnUse">
<stop stop-color="#00AB39"/>
<stop offset="1" stop-color="#008B00"/>
</linearGradient>
<linearGradient id="paint19_linear_321_1075" x1="751.944" y1="311.432" x2="779.809" y2="347.676" gradientUnits="userSpaceOnUse">
<stop stop-color="#00AB39"/>
<stop offset="1" stop-color="#008B00"/>
</linearGradient>
<linearGradient id="paint20_linear_321_1075" x1="771.478" y1="391.851" x2="800.838" y2="430.04" gradientUnits="userSpaceOnUse">
<stop stop-color="#00AB39"/>
<stop offset="1" stop-color="#008B00"/>
</linearGradient>
<linearGradient id="paint21_linear_321_1075" x1="670.104" y1="331.166" x2="698.416" y2="367.991" gradientUnits="userSpaceOnUse">
<stop stop-color="#00AB39"/>
<stop offset="1" stop-color="#008B00"/>
</linearGradient>
<linearGradient id="paint22_linear_321_1075" x1="500.732" y1="372.536" x2="536.409" y2="418.942" gradientUnits="userSpaceOnUse">
<stop stop-color="#00AB39"/>
<stop offset="1" stop-color="#008B00"/>
</linearGradient>
<linearGradient id="paint23_linear_321_1075" x1="417.957" y1="391.353" x2="455.366" y2="440.012" gradientUnits="userSpaceOnUse">
<stop stop-color="#00AB39"/>
<stop offset="1" stop-color="#008B00"/>
</linearGradient>
<linearGradient id="paint24_linear_321_1075" x1="251.35" y1="441.485" x2="288.759" y2="490.143" gradientUnits="userSpaceOnUse">
<stop stop-color="#00AB39"/>
<stop offset="1" stop-color="#008B00"/>
</linearGradient>
<linearGradient id="paint25_linear_321_1075" x1="835.104" y1="290.856" x2="863.416" y2="327.682" gradientUnits="userSpaceOnUse">
<stop stop-color="#00AB39"/>
<stop offset="1" stop-color="#008B00"/>
</linearGradient>
</defs>
</svg>
